<?xml version="1.0" encoding="iso-8859-1" standalone="no"?> 
<?xml-stylesheet href="latex-635HiL.css" type="text/css"?> 
<svg xmlns="http://www.w3.org/2000/svg" xmlns:xlink="http://www.w3.org/1999/xlink" width="228.12697pt" height="141.59229pt" viewBox="-67.26317 -70.79614 228.12697 141.59229 "> 
<g transform="translate(0, 70.79614 ) scale(1,-1) translate(0,70.79614 )"> 
                    <g>
 <g stroke="rgb(0.0%,0.0%,0.0%)">
 <g fill="rgb(0.0%,0.0%,0.0%)">
 <g stroke-width="0.4pt">
 <g>
 <g>
 <g stroke="rgb(0.0%,100.0%,0.0%)">
 <g fill="rgb(89.99939%,100.0%,89.99939%)">
 <g>
 <g stroke="rgb(0.0%,100.0%,0.0%)">
 <g fill="rgb(89.99939%,100.0%,89.99939%)">
 <path d=" M  -17.95934 34.67747 h  178.62314 v  35.91867 h  -178.62314 Z  " />
 </g>
 </g>
 </g>
 <g>
 <g transform="matrix(1.0,0.0,0.0,1.0,-14.62636,52.63681)">
 <g fill="rgb(0.0%,0.0%,0.0%)">
 <text style="stroke:none" transform="scale(1,-1) translate(85.97859,0)" text-anchor="middle"  font-size="10"> 
</text> 
</g>
 </g>
 </g>
 </g>
 </g>
 </g>
 <g>
 <g stroke="rgb(0.0%,100.0%,100.0%)">
 <g fill="rgb(89.99939%,100.0%,100.0%)">
 <g>
 <g stroke="rgb(0.0%,100.0%,100.0%)">
 <g fill="rgb(89.99939%,100.0%,100.0%)">
 <path d=" M  -17.95934 -70.59615 h  178.62314 v  35.91867 h  -178.62314 Z  " />
 </g>
 </g>
 </g>
 <g>
 <g transform="matrix(1.0,0.0,0.0,1.0,-14.62636,-52.63681)">
 <g fill="rgb(0.0%,0.0%,0.0%)">
 <text style="stroke:none" transform="scale(1,-1) translate(85.97859,0)" text-anchor="middle"  font-size="10"> 
</text> 
</g>
 </g>
 </g>
 </g>
 </g>
 </g>
 </g>
 <g>
 <g stroke-width="0.8pt">
 <g>
 <g stroke="rgb(80.0003%,50.0%,19.9997%)">
 <g fill="rgb(100.0%,89.99939%,80.0003%)">
 <g>
 <g stroke="rgb(80.0003%,50.0%,19.9997%)">
 <g fill="rgb(100.0%,89.99939%,80.0003%)">
 <path d=" M  9.15771 0.0 C  9.15771 5.05772 5.05772 9.15771 0.0 9.15771 C  -5.05772 9.15771 -9.15771 5.05772 -9.15771 0.0 C  -9.15771 -5.05772 -5.05772 -9.15771 0.0 -9.15771 C  5.05772 -9.15771 9.15771 -5.05772 9.15771 0.0 Z M  0.0 0.0  " />
 </g>
 </g>
 </g>
 <g>
 <g transform="matrix(1.0,0.0,0.0,1.0,-2.5,-3.75)">
 <g fill="rgb(0.0%,0.0%,0.0%)">
 <text style="stroke:none" transform="scale(1,-1) translate(2.5,0)" text-anchor="middle"  font-size="10"> 
*</text> 
</g>
 </g>
 </g>
 </g>
 </g>
 </g>
 <g>
 <g stroke="rgb(19.9997%,80.0003%,19.9997%)">
 <g fill="rgb(80.0003%,100.0%,80.0003%)">
 <g>
 <g stroke="rgb(19.9997%,80.0003%,19.9997%)">
 <g fill="rgb(80.0003%,100.0%,80.0003%)">
 <path d=" M  -14.22636 38.41045 h  28.45273 v  28.45273 h  -28.45273 Z  " />
 </g>
 </g>
 </g>
 <g>
 <g transform="matrix(1.0,0.0,0.0,1.0,-5.1007,51.23402)">
 <g fill="rgb(0.0%,0.0%,0.0%)">
 <text style="stroke:none" transform="scale(1,-1) translate(5.1007,0)" text-anchor="middle"  font-size="10"> 
<tspan font-family="cmmi" font-size="10">x</tspan><tspan baseline-shift="sub"><tspan font-family="cmr" font-size="7">1</tspan></tspan></text> 
</g>
 </g>
 </g>
 </g>
 </g>
 </g>
 <g>
 <g>
 <g stroke="rgb(35.00061%,64.99939%,35.00061%)">
 <path d=" M  0.0 38.01045 L  0.0 14.23761  " style="fill:none"/>
 <g>
 <g fill="rgb(35.00061%,64.99939%,35.00061%)">
 <g transform="matrix(0.0,-1.0,1.0,0.0,0.0,14.23761)">
 <g>
 <path d=" M  4.6799 0.0 C  3.29324 0.26 1.03998 1.03998 -0.51999 1.94995 L  -0.51999 -1.94995 C  1.03998 -1.03998 3.29324 -0.26 4.6799 0.0  " style="stroke:none"/>
 </g>
  </g>
 </g>
 </g>
 </g>
 </g>
 </g>
 <g>
 <g stroke="rgb(32.00073%,80.0003%,80.0003%)">
 <g fill="rgb(80.0003%,100.0%,100.0%)">
 <g>
 <g stroke="rgb(32.00073%,80.0003%,80.0003%)">
 <g fill="rgb(80.0003%,100.0%,100.0%)">
 <path d=" M  -14.22636 -66.86317 h  28.45273 v  28.45273 h  -28.45273 Z  " />
 </g>
 </g>
 </g>
 <g>
 <g transform="matrix(1.0,0.0,0.0,1.0,-4.87386,-53.81737)">
 <g fill="rgb(0.0%,0.0%,0.0%)">
 <text style="stroke:none" transform="scale(1,-1) translate(4.87386,0)" text-anchor="middle"  font-size="10"> 
<tspan font-family="cmmi" font-size="10">y</tspan><tspan baseline-shift="sub"><tspan font-family="cmr" font-size="7">1</tspan> </tspan></text> 
</g>
 </g>
 </g>
 </g>
 </g>
 </g>
 <g>
 <g>
 <g stroke="rgb(45.50018%,64.99939%,64.99939%)">
 <path d=" M  0.0 -38.01045 L  0.0 -14.23761  " style="fill:none"/>
 <g>
 <g fill="rgb(45.50018%,64.99939%,64.99939%)">
 <g transform="matrix(0.0,1.0,-1.0,0.0,0.0,-14.23761)">
 <g>
 <path d=" M  4.6799 0.0 C  3.29324 0.26 1.03998 1.03998 -0.51999 1.94995 L  -0.51999 -1.94995 C  1.03998 -1.03998 3.29324 -0.26 4.6799 0.0  " style="stroke:none"/>
 </g>
  </g>
 </g>
 </g>
 </g>
 </g>
 </g>
 <g>
 <g stroke="rgb(80.0003%,50.0%,19.9997%)">
 <g fill="rgb(100.0%,89.99939%,80.0003%)">
 <g>
 <g stroke="rgb(80.0003%,50.0%,19.9997%)">
 <g fill="rgb(100.0%,89.99939%,80.0003%)">
 <path d=" M  -66.86317 -14.22636 h  28.45273 v  28.45273 h  -28.45273 Z  " />
 </g>
 </g>
 </g>
 <g>
 <g transform="matrix(1.0,0.0,0.0,1.0,-59.46841,-3.47221)">
 <g fill="rgb(0.0%,0.0%,0.0%)">
 <text style="stroke:none" transform="scale(1,-1) translate(6.8316,0)" text-anchor="middle"  font-size="10"> 
<tspan font-family="cmmi" font-size="10">dot</tspan></text> 
</g>
 </g>
 </g>
 </g>
 </g>
 </g>
 <g>
 <g>
 <g stroke="rgb(64.99939%,50.0%,35.00061%)">
 <path d=" M  -33.33055 0.0 L  -9.55771 0.0  " style="fill:none"/>
 <g>
 <g fill="rgb(64.99939%,50.0%,35.00061%)">
 <g transform="matrix(-1.0,0.0,0.0,-1.0,-33.33055,0.0)">
 <g>
 <path d=" M  4.6799 0.0 C  3.29324 0.26 1.03998 1.03998 -0.51999 1.94995 L  -0.51999 -1.94995 C  1.03998 -1.03998 3.29324 -0.26 4.6799 0.0  " style="stroke:none"/>
 </g>
  </g>
 </g>
 </g>
 <g>
 <g>
 <g transform="matrix(1.0,0.0,0.0,1.0,-29.89519,6.23303)">
 <g fill="rgb(0.0%,0.0%,0.0%)">
 <text style="stroke:none" transform="scale(1,-1) translate(6.1111,0)" text-anchor="middle"  font-size="10"> 
 <tspan font-family="cmex" font-size="10">&#x2211;</tspan>
</text> 
</g>
 </g>
 </g>
 </g>
 </g>
 </g>
 </g>
 <g>
 <g stroke="rgb(80.0003%,50.0%,19.9997%)">
 <g fill="rgb(100.0%,89.99939%,80.0003%)">
 <g>
 <g stroke="rgb(80.0003%,50.0%,19.9997%)">
 <g fill="rgb(100.0%,89.99939%,80.0003%)">
 <path d=" M  56.72588 0.0 C  56.72588 5.05772 52.62589 9.15771 47.56816 9.15771 C  42.51044 9.15771 38.41045 5.05772 38.41045 0.0 C  38.41045 -5.05772 42.51044 -9.15771 47.56816 -9.15771 C  52.62589 -9.15771 56.72588 -5.05772 56.72588 0.0 Z M  47.56816 0.0  " />
 </g>
 </g>
 </g>
 <g>
 <g transform="matrix(1.0,0.0,0.0,1.0,45.06816,-3.75)">
 <g fill="rgb(0.0%,0.0%,0.0%)">
 <text style="stroke:none" transform="scale(1,-1) translate(2.5,0)" text-anchor="middle"  font-size="10"> 
*</text> 
</g>
 </g>
 </g>
 </g>
 </g>
 </g>
 <g>
 <g>
 <g stroke="rgb(64.99939%,50.0%,35.00061%)">
 <path d=" M  38.01045 0.0 L  9.55771 0.0  " style="fill:none"/>
 <g>
 <g>
 <g transform="matrix(1.0,0.0,0.0,1.0,19.89519,4.5663)">
 <g fill="rgb(0.0%,0.0%,0.0%)">
 <text style="stroke:none" transform="scale(1,-1) translate(3.8889,0)" text-anchor="middle"  font-size="10"> 
+</text> 
</g>
 </g>
 </g>
 </g>
 </g>
 </g>
 </g>
 <g>
 <g stroke="rgb(19.9997%,80.0003%,19.9997%)">
 <g fill="rgb(80.0003%,100.0%,80.0003%)">
 <g>
 <g stroke="rgb(19.9997%,80.0003%,19.9997%)">
 <g fill="rgb(80.0003%,100.0%,80.0003%)">
 <path d=" M  33.3418 38.41045 h  28.45273 v  28.45273 h  -28.45273 Z  " />
 </g>
 </g>
 </g>
 <g>
 <g transform="matrix(1.0,0.0,0.0,1.0,42.46747,51.23402)">
 <g fill="rgb(0.0%,0.0%,0.0%)">
 <text style="stroke:none" transform="scale(1,-1) translate(5.1007,0)" text-anchor="middle"  font-size="10"> 
<tspan font-family="cmmi" font-size="10">x</tspan><tspan baseline-shift="sub"><tspan font-family="cmr" font-size="7">2</tspan></tspan></text> 
</g>
 </g>
 </g>
 </g>
 </g>
 </g>
 <g>
 <g>
 <g stroke="rgb(35.00061%,64.99939%,35.00061%)">
 <path d=" M  47.56816 38.01045 L  47.56816 14.23761  " style="fill:none"/>
 <g>
 <g fill="rgb(35.00061%,64.99939%,35.00061%)">
 <g transform="matrix(0.0,-1.0,1.0,0.0,47.56816,14.23761)">
 <g>
 <path d=" M  4.6799 0.0 C  3.29324 0.26 1.03998 1.03998 -0.51999 1.94995 L  -0.51999 -1.94995 C  1.03998 -1.03998 3.29324 -0.26 4.6799 0.0  " style="stroke:none"/>
 </g>
  </g>
 </g>
 </g>
 </g>
 </g>
 </g>
 <g>
 <g stroke="rgb(32.00073%,80.0003%,80.0003%)">
 <g fill="rgb(80.0003%,100.0%,100.0%)">
 <g>
 <g stroke="rgb(32.00073%,80.0003%,80.0003%)">
 <g fill="rgb(80.0003%,100.0%,100.0%)">
 <path d=" M  33.3418 -66.86317 h  28.45273 v  28.45273 h  -28.45273 Z  " />
 </g>
 </g>
 </g>
 <g>
 <g transform="matrix(1.0,0.0,0.0,1.0,42.6943,-53.81737)">
 <g fill="rgb(0.0%,0.0%,0.0%)">
 <text style="stroke:none" transform="scale(1,-1) translate(4.87386,0)" text-anchor="middle"  font-size="10"> 
<tspan font-family="cmmi" font-size="10">y</tspan><tspan baseline-shift="sub"><tspan font-family="cmr" font-size="7">2</tspan> </tspan></text> 
</g>
 </g>
 </g>
 </g>
 </g>
 </g>
 <g>
 <g>
 <g stroke="rgb(45.50018%,64.99939%,64.99939%)">
 <path d=" M  47.56816 -38.01045 L  47.56816 -14.23761  " style="fill:none"/>
 <g>
 <g fill="rgb(45.50018%,64.99939%,64.99939%)">
 <g transform="matrix(0.0,1.0,-1.0,0.0,47.56816,-14.23761)">
 <g>
 <path d=" M  4.6799 0.0 C  3.29324 0.26 1.03998 1.03998 -0.51999 1.94995 L  -0.51999 -1.94995 C  1.03998 -1.03998 3.29324 -0.26 4.6799 0.0  " style="stroke:none"/>
 </g>
  </g>
 </g>
 </g>
 </g>
 </g>
 </g>
 <g>
 <g stroke="rgb(80.0003%,50.0%,19.9997%)">
 <g fill="rgb(100.0%,89.99939%,80.0003%)">
 <g>
 <g stroke="rgb(80.0003%,50.0%,19.9997%)">
 <g fill="rgb(100.0%,89.99939%,80.0003%)">
 <path d=" M  104.29404 0.0 C  104.29404 5.05772 100.19405 9.15771 95.13632 9.15771 C  90.0786 9.15771 85.9786 5.05772 85.9786 0.0 C  85.9786 -5.05772 90.0786 -9.15771 95.13632 -9.15771 C  100.19405 -9.15771 104.29404 -5.05772 104.29404 0.0 Z M  95.13632 0.0  " />
 </g>
 </g>
 </g>
 <g>
 <g transform="matrix(1.0,0.0,0.0,1.0,92.63632,-3.75)">
 <g fill="rgb(0.0%,0.0%,0.0%)">
 <text style="stroke:none" transform="scale(1,-1) translate(2.5,0)" text-anchor="middle"  font-size="10"> 
*</text> 
</g>
 </g>
 </g>
 </g>
 </g>
 </g>
 <g>
 <g>
 <g stroke="rgb(64.99939%,50.0%,35.00061%)">
 <path d=" M  85.57861 0.0 L  57.12587 0.0  " style="fill:none"/>
 <g>
 <g>
 <g transform="matrix(1.0,0.0,0.0,1.0,67.46335,4.5663)">
 <g fill="rgb(0.0%,0.0%,0.0%)">
 <text style="stroke:none" transform="scale(1,-1) translate(3.8889,0)" text-anchor="middle"  font-size="10"> 
+</text> 
</g>
 </g>
 </g>
 </g>
 </g>
 </g>
 </g>
 <g>
 <g stroke="rgb(19.9997%,80.0003%,19.9997%)">
 <g fill="rgb(80.0003%,100.0%,80.0003%)">
 <g>
 <g stroke="rgb(19.9997%,80.0003%,19.9997%)">
 <g fill="rgb(80.0003%,100.0%,80.0003%)">
 <path d=" M  80.90996 38.41045 h  28.45273 v  28.45273 h  -28.45273 Z  " />
 </g>
 </g>
 </g>
 <g>
 <g transform="matrix(1.0,0.0,0.0,1.0,90.03563,51.23402)">
 <g fill="rgb(0.0%,0.0%,0.0%)">
 <text style="stroke:none" transform="scale(1,-1) translate(5.1007,0)" text-anchor="middle"  font-size="10"> 
<tspan font-family="cmmi" font-size="10">x</tspan><tspan baseline-shift="sub"><tspan font-family="cmr" font-size="7">3</tspan></tspan></text> 
</g>
 </g>
 </g>
 </g>
 </g>
 </g>
 <g>
 <g>
 <g stroke="rgb(35.00061%,64.99939%,35.00061%)">
 <path d=" M  95.13632 38.01045 L  95.13632 14.23761  " style="fill:none"/>
 <g>
 <g fill="rgb(35.00061%,64.99939%,35.00061%)">
 <g transform="matrix(0.0,-1.0,1.0,0.0,95.13632,14.23761)">
 <g>
 <path d=" M  4.6799 0.0 C  3.29324 0.26 1.03998 1.03998 -0.51999 1.94995 L  -0.51999 -1.94995 C  1.03998 -1.03998 3.29324 -0.26 4.6799 0.0  " style="stroke:none"/>
 </g>
  </g>
 </g>
 </g>
 </g>
 </g>
 </g>
 <g>
 <g stroke="rgb(32.00073%,80.0003%,80.0003%)">
 <g fill="rgb(80.0003%,100.0%,100.0%)">
 <g>
 <g stroke="rgb(32.00073%,80.0003%,80.0003%)">
 <g fill="rgb(80.0003%,100.0%,100.0%)">
 <path d=" M  80.90996 -66.86317 h  28.45273 v  28.45273 h  -28.45273 Z  " />
 </g>
 </g>
 </g>
 <g>
 <g transform="matrix(1.0,0.0,0.0,1.0,90.26247,-53.81737)">
 <g fill="rgb(0.0%,0.0%,0.0%)">
 <text style="stroke:none" transform="scale(1,-1) translate(4.87386,0)" text-anchor="middle"  font-size="10"> 
<tspan font-family="cmmi" font-size="10">y</tspan><tspan baseline-shift="sub"><tspan font-family="cmr" font-size="7">3</tspan> </tspan></text> 
</g>
 </g>
 </g>
 </g>
 </g>
 </g>
 <g>
 <g>
 <g stroke="rgb(45.50018%,64.99939%,64.99939%)">
 <path d=" M  95.13632 -38.01045 L  95.13632 -14.23761  " style="fill:none"/>
 <g>
 <g fill="rgb(45.50018%,64.99939%,64.99939%)">
 <g transform="matrix(0.0,1.0,-1.0,0.0,95.13632,-14.23761)">
 <g>
 <path d=" M  4.6799 0.0 C  3.29324 0.26 1.03998 1.03998 -0.51999 1.94995 L  -0.51999 -1.94995 C  1.03998 -1.03998 3.29324 -0.26 4.6799 0.0  " style="stroke:none"/>
 </g>
  </g>
 </g>
 </g>
 </g>
 </g>
 </g>
 <g>
 <g stroke="rgb(80.0003%,50.0%,19.9997%)">
 <g fill="rgb(100.0%,89.99939%,80.0003%)">
 <g>
 <g stroke="rgb(80.0003%,50.0%,19.9997%)">
 <g fill="rgb(100.0%,89.99939%,80.0003%)">
 <path d=" M  151.8622 0.0 C  151.8622 5.05772 147.7622 9.15771 142.70448 9.15771 C  137.64676 9.15771 133.54677 5.05772 133.54677 0.0 C  133.54677 -5.05772 137.64676 -9.15771 142.70448 -9.15771 C  147.7622 -9.15771 151.8622 -5.05772 151.8622 0.0 Z M  142.70448 0.0  " />
 </g>
 </g>
 </g>
 <g>
 <g transform="matrix(1.0,0.0,0.0,1.0,140.20448,-3.75)">
 <g fill="rgb(0.0%,0.0%,0.0%)">
 <text style="stroke:none" transform="scale(1,-1) translate(2.5,0)" text-anchor="middle"  font-size="10"> 
*</text> 
</g>
 </g>
 </g>
 </g>
 </g>
 </g>
 <g>
 <g>
 <g stroke="rgb(64.99939%,50.0%,35.00061%)">
 <path d=" M  133.14677 0.0 L  104.69403 0.0  " style="fill:none"/>
 <g>
 <g>
 <g transform="matrix(1.0,0.0,0.0,1.0,115.03151,4.5663)">
 <g fill="rgb(0.0%,0.0%,0.0%)">
 <text style="stroke:none" transform="scale(1,-1) translate(3.8889,0)" text-anchor="middle"  font-size="10"> 
+</text> 
</g>
 </g>
 </g>
 </g>
 </g>
 </g>
 </g>
 <g>
 <g stroke="rgb(19.9997%,80.0003%,19.9997%)">
 <g fill="rgb(80.0003%,100.0%,80.0003%)">
 <g>
 <g stroke="rgb(19.9997%,80.0003%,19.9997%)">
 <g fill="rgb(80.0003%,100.0%,80.0003%)">
 <path d=" M  128.47812 38.41045 h  28.45273 v  28.45273 h  -28.45273 Z  " />
 </g>
 </g>
 </g>
 <g>
 <g transform="matrix(1.0,0.0,0.0,1.0,137.60379,51.23402)">
 <g fill="rgb(0.0%,0.0%,0.0%)">
 <text style="stroke:none" transform="scale(1,-1) translate(5.1007,0)" text-anchor="middle"  font-size="10"> 
<tspan font-family="cmmi" font-size="10">x</tspan><tspan baseline-shift="sub"><tspan font-family="cmr" font-size="7">4</tspan></tspan></text> 
</g>
 </g>
 </g>
 </g>
 </g>
 </g>
 <g>
 <g>
 <g stroke="rgb(35.00061%,64.99939%,35.00061%)">
 <path d=" M  142.70448 38.01045 L  142.70448 14.23761  " style="fill:none"/>
 <g>
 <g fill="rgb(35.00061%,64.99939%,35.00061%)">
 <g transform="matrix(0.0,-1.0,1.0,0.0,142.70448,14.23761)">
 <g>
 <path d=" M  4.6799 0.0 C  3.29324 0.26 1.03998 1.03998 -0.51999 1.94995 L  -0.51999 -1.94995 C  1.03998 -1.03998 3.29324 -0.26 4.6799 0.0  " style="stroke:none"/>
 </g>
  </g>
 </g>
 </g>
 </g>
 </g>
 </g>
 <g>
 <g stroke="rgb(32.00073%,80.0003%,80.0003%)">
 <g fill="rgb(80.0003%,100.0%,100.0%)">
 <g>
 <g stroke="rgb(32.00073%,80.0003%,80.0003%)">
 <g fill="rgb(80.0003%,100.0%,100.0%)">
 <path d=" M  128.47812 -66.86317 h  28.45273 v  28.45273 h  -28.45273 Z  " />
 </g>
 </g>
 </g>
 <g>
 <g transform="matrix(1.0,0.0,0.0,1.0,137.83063,-53.81737)">
 <g fill="rgb(0.0%,0.0%,0.0%)">
 <text style="stroke:none" transform="scale(1,-1) translate(4.87386,0)" text-anchor="middle"  font-size="10"> 
<tspan font-family="cmmi" font-size="10">y</tspan><tspan baseline-shift="sub"><tspan font-family="cmr" font-size="7">4</tspan> </tspan></text> 
</g>
 </g>
 </g>
 </g>
 </g>
 </g>
 <g>
 <g>
 <g stroke="rgb(45.50018%,64.99939%,64.99939%)">
 <path d=" M  142.70448 -38.01045 L  142.70448 -14.23761  " style="fill:none"/>
 <g>
 <g fill="rgb(45.50018%,64.99939%,64.99939%)">
 <g transform="matrix(0.0,1.0,-1.0,0.0,142.70448,-14.23761)">
 <g>
 <path d=" M  4.6799 0.0 C  3.29324 0.26 1.03998 1.03998 -0.51999 1.94995 L  -0.51999 -1.94995 C  1.03998 -1.03998 3.29324 -0.26 4.6799 0.0  " style="stroke:none"/>
 </g>
  </g>
 </g>
 </g>
 </g>
 </g>
 </g>
 <g>
 <g stroke-width="0.4pt">
 </g>
 </g>
 </g>
 </g>
 </g>
 </g>
 </g>
 </g>
 
                                                                                     </g> 
</svg> 
