<?xml version="1.0" encoding="iso-8859-1" standalone="no"?> 
<?xml-stylesheet href="latex-hDaPYq.css" type="text/css"?> 
<svg xmlns="http://www.w3.org/2000/svg" xmlns:xlink="http://www.w3.org/1999/xlink" width="297.86006pt" height="159.73465pt" viewBox="-149.76337 -22.96184 297.86006 159.73465 "> 
<g transform="translate(0, 136.77281 ) scale(1,-1) translate(0,22.96184 )"> 
                                             <g>{?nl} <g stroke="rgb(0.0%,0.0%,0.0%)">{?nl} <g fill="rgb(0.0%,0.0%,0.0%)">{?nl} <g stroke-width="0.4pt">{?nl} <g>{?nl} <path d=" M  -142.26372 0.0 L  141.80373 0.0  " style="fill:none"/>{?nl} <g>{?nl} <g transform="matrix(1.0,0.0,0.0,1.0,141.80373,0.0)">{?nl} <g>{?nl} <g stroke-width="0.31999pt">{?nl} <g stroke-dasharray="none" stroke-dashoffset="0.0pt">{?nl} <g stroke-linecap="round">{?nl} <g stroke-linejoin="round">{?nl} <path d=" M  -1.19998 1.59998 C  -1.09998 0.99998 0.0 0.09999 0.29999 0.0 C  0.0 -0.09999 -1.09998 -0.99998 -1.19998 -1.59998  " style="fill:none"/>{?nl} </g>{?nl} </g>{?nl} </g>{?nl} </g>{?nl} </g>{?nl}  </g>{?nl} </g>{?nl} <g>{?nl} </g>{?nl} <path d=" M  -142.26372 4.0 L  -142.26372 -4.0  " style="fill:none"/>{?nl} <g>{?nl} <g>{?nl} <g transform="matrix(1.0,0.0,0.0,1.0,-146.43039,-13.9774)">{?nl} <g fill="rgb(0.0%,0.0%,0.0%)">{?nl} <text style="stroke:none" transform="scale(1,-1) translate(4.16667,0)" text-anchor="middle"  font-size="10"> 
-5</text> 
</g>{?nl} </g>{?nl} </g>{?nl} </g>{?nl} <path d=" M  -113.81097 4.0 L  -113.81097 -4.0  " style="fill:none"/>{?nl} <g>{?nl} <g>{?nl} <g transform="matrix(1.0,0.0,0.0,1.0,-117.97765,-13.9774)">{?nl} <g fill="rgb(0.0%,0.0%,0.0%)">{?nl} <text style="stroke:none" transform="scale(1,-1) translate(4.16667,0)" text-anchor="middle"  font-size="10"> 
-4</text> 
</g>{?nl} </g>{?nl} </g>{?nl} </g>{?nl} <path d=" M  -85.35823 4.0 L  -85.35823 -4.0  " style="fill:none"/>{?nl} <g>{?nl} <g>{?nl} <g transform="matrix(1.0,0.0,0.0,1.0,-89.5249,-13.9774)">{?nl} <g fill="rgb(0.0%,0.0%,0.0%)">{?nl} <text style="stroke:none" transform="scale(1,-1) translate(4.16667,0)" text-anchor="middle"  font-size="10"> 
-3</text> 
</g>{?nl} </g>{?nl} </g>{?nl} </g>{?nl} <path d=" M  -56.90549 4.0 L  -56.90549 -4.0  " style="fill:none"/>{?nl} <g>{?nl} <g>{?nl} <g transform="matrix(1.0,0.0,0.0,1.0,-61.07216,-13.9774)">{?nl} <g fill="rgb(0.0%,0.0%,0.0%)">{?nl} <text style="stroke:none" transform="scale(1,-1) translate(4.16667,0)" text-anchor="middle"  font-size="10"> 
-2</text> 
</g>{?nl} </g>{?nl} </g>{?nl} </g>{?nl} <path d=" M  -28.45274 4.0 L  -28.45274 -4.0  " style="fill:none"/>{?nl} <g>{?nl} <g>{?nl} <g transform="matrix(1.0,0.0,0.0,1.0,-32.61942,-13.9774)">{?nl} <g fill="rgb(0.0%,0.0%,0.0%)">{?nl} <text style="stroke:none" transform="scale(1,-1) translate(4.16667,0)" text-anchor="middle"  font-size="10"> 
-1</text> 
</g>{?nl} </g>{?nl} </g>{?nl} </g>{?nl} <path d=" M  0.0 4.0 L  0.0 -4.0  " style="fill:none"/>{?nl} <g>{?nl} <g>{?nl} <g transform="matrix(1.0,0.0,0.0,1.0,-2.5,-13.9774)">{?nl} <g fill="rgb(0.0%,0.0%,0.0%)">{?nl} <text style="stroke:none" transform="scale(1,-1) translate(2.5,0)" text-anchor="middle"  font-size="10"> 
0</text> 
</g>{?nl} </g>{?nl} </g>{?nl} </g>{?nl} <path d=" M  28.45274 4.0 L  28.45274 -4.0  " style="fill:none"/>{?nl} <g>{?nl} <g>{?nl} <g transform="matrix(1.0,0.0,0.0,1.0,25.95274,-13.9774)">{?nl} <g fill="rgb(0.0%,0.0%,0.0%)">{?nl} <text style="stroke:none" transform="scale(1,-1) translate(2.5,0)" text-anchor="middle"  font-size="10"> 
1</text> 
</g>{?nl} </g>{?nl} </g>{?nl} </g>{?nl} <path d=" M  56.90549 4.0 L  56.90549 -4.0  " style="fill:none"/>{?nl} <g>{?nl} <g>{?nl} <g transform="matrix(1.0,0.0,0.0,1.0,54.40549,-13.9774)">{?nl} <g fill="rgb(0.0%,0.0%,0.0%)">{?nl} <text style="stroke:none" transform="scale(1,-1) translate(2.5,0)" text-anchor="middle"  font-size="10"> 
2</text> 
</g>{?nl} </g>{?nl} </g>{?nl} </g>{?nl} <path d=" M  85.35823 4.0 L  85.35823 -4.0  " style="fill:none"/>{?nl} <g>{?nl} <g>{?nl} <g transform="matrix(1.0,0.0,0.0,1.0,82.85823,-13.9774)">{?nl} <g fill="rgb(0.0%,0.0%,0.0%)">{?nl} <text style="stroke:none" transform="scale(1,-1) translate(2.5,0)" text-anchor="middle"  font-size="10"> 
3</text> 
</g>{?nl} </g>{?nl} </g>{?nl} </g>{?nl} <path d=" M  113.81097 4.0 L  113.81097 -4.0  " style="fill:none"/>{?nl} <g>{?nl} <g>{?nl} <g transform="matrix(1.0,0.0,0.0,1.0,111.31097,-13.9774)">{?nl} <g fill="rgb(0.0%,0.0%,0.0%)">{?nl} <text style="stroke:none" transform="scale(1,-1) translate(2.5,0)" text-anchor="middle"  font-size="10"> 
4</text> 
</g>{?nl} </g>{?nl} </g>{?nl} </g>{?nl} <path d=" M  142.26372 4.0 L  142.26372 -4.0  " style="fill:none"/>{?nl} <g>{?nl} <g>{?nl} <g transform="matrix(1.0,0.0,0.0,1.0,139.76372,-13.9774)">{?nl} <g fill="rgb(0.0%,0.0%,0.0%)">{?nl} <text style="stroke:none" transform="scale(1,-1) translate(2.5,0)" text-anchor="middle"  font-size="10"> 
5</text> 
</g>{?nl} </g>{?nl} </g>{?nl} </g>{?nl} <path d=" M  0.0 -22.76184 L  0.0 136.11282  " style="fill:none"/>{?nl} <g>{?nl} <g transform="matrix(0.0,1.0,-1.0,0.0,0.0,136.11282)">{?nl} <g>{?nl} <g stroke-width="0.31999pt">{?nl} <g stroke-dasharray="none" stroke-dashoffset="0.0pt">{?nl} <g stroke-linecap="round">{?nl} <g stroke-linejoin="round">{?nl} <path d=" M  -1.19998 1.59998 C  -1.09998 0.99998 0.0 0.09999 0.29999 0.0 C  0.0 -0.09999 -1.09998 -0.99998 -1.19998 -1.59998  " style="fill:none"/>{?nl} </g>{?nl} </g>{?nl} </g>{?nl} </g>{?nl} </g>{?nl}  </g>{?nl} </g>{?nl} <g>{?nl} </g>{?nl} <path d=" M  1.0 56.90546 L  -1.0 56.90546  " style="fill:none"/>{?nl} <g>{?nl} <g>{?nl} <g transform="matrix(1.0,0.0,0.0,1.0,-17.31078,53.68324)">{?nl} <g fill="rgb(0.0%,0.0%,0.0%)">{?nl} <text style="stroke:none" transform="scale(1,-1) translate(6.3889,0)" text-anchor="middle"  font-size="10"> 
0.5</text> 
</g>{?nl} </g>{?nl} </g>{?nl} </g>{?nl} <path d=" M  1.0 113.81097 L  -1.0 113.81097  " style="fill:none"/>{?nl} <g>{?nl} <g>{?nl} <g transform="matrix(1.0,0.0,0.0,1.0,-9.53297,110.58876)">{?nl} <g fill="rgb(0.0%,0.0%,0.0%)">{?nl} <text style="stroke:none" transform="scale(1,-1) translate(2.5,0)" text-anchor="middle"  font-size="10"> 
1</text> 
</g>{?nl} </g>{?nl} </g>{?nl} </g>{?nl} <g>{?nl} <g stroke="rgb(62.5%,25.0%,62.5%)">{?nl} <g fill="rgb(62.5%,25.0%,62.5%)">{?nl} <g stroke-width="1.0pt">{?nl} <path d=" M  -142.26372 0.75195 C  -142.26372 0.75195 -133.69841 1.00183 -130.40869 1.13745 C  -127.11897 1.27307 -121.84338 1.52582 -118.55367 1.72961 C  -115.26395 1.93341 -109.98837 2.305 -106.69865 2.60663 C  -103.40894 2.90826 -98.13335 3.4555 -94.84363 3.90387 C  -91.55391 4.35223 -86.27832 5.18317 -82.9886 5.8385 C  -79.69888 6.49384 -74.42331 7.68951 -71.13359 8.6275 C  -67.84387 9.56549 -62.56828 11.28864 -59.27856 12.59912 C  -55.98885 13.9096 -50.71327 16.30438 -47.42355 18.07294 C  -44.13383 19.84149 -38.85825 23.07037 -35.56853 25.34589 C  -32.27881 27.6214 -27.00322 31.71661 -23.7135 34.47357 C  -20.42378 37.23053 -15.14821 42.10394 -11.85849 45.21631 C  -8.56877 48.32867 -3.29318 53.66296 -0.00346 56.90546 C  3.28625 60.14795 8.56181 65.4748 11.85153 68.58594 C  15.14125 71.69708 20.41684 76.57074 23.70656 79.32867 C  26.99628 82.08661 32.27187 86.18799 35.56158 88.46326 C  38.8513 90.73853 44.12688 93.95972 47.4166 95.72754 C  50.70631 97.49536 55.9819 99.8941 59.27162 101.20483 C  62.56134 102.51556 67.83693 104.23651 71.12665 105.17474 C  74.41637 106.11298 79.69194 107.31305 82.98166 107.96722 C  86.27138 108.6214 91.54697 109.44177 94.83669 109.88965 C  98.1264 110.33752 103.40198 110.89276 106.6917 111.19562 C  109.98141 111.49847 115.257 111.8695 118.54672 112.07257 C  121.83644 112.27563 127.11203 112.52417 130.40175 112.65955 C  133.69147 112.79492 142.25676 113.04858 142.25676 113.04858  " style="fill:none"/>{?nl} </g>{?nl} </g>{?nl} </g>{?nl} </g>{?nl} </g>{?nl} </g>{?nl} </g>{?nl} </g>{?nl} </g>{?nl} 
                                                                                         </g> 
</svg> 
