<?xml version="1.0" encoding="iso-8859-1" standalone="no"?> 
<?xml-stylesheet href="latex-nf2RX7.css" type="text/css"?> 
<svg xmlns="http://www.w3.org/2000/svg" xmlns:xlink="http://www.w3.org/1999/xlink" width="302.99867pt" height="132.81691pt" viewBox="-102.62961 -17.27138 302.99867 132.81691 "> 
<g transform="translate(0, 115.54553 ) scale(1,-1) translate(0,17.27138 )"> 
                               <g>{?nl} <g stroke="rgb(0.0%,0.0%,0.0%)">{?nl} <g fill="rgb(0.0%,0.0%,0.0%)">{?nl} <g stroke-width="0.4pt">{?nl} <g>{?nl} <path d=" M  -102.42961 0.0 L  187.32785 0.0  " style="fill:none"/>{?nl} <g>{?nl} <g transform="matrix(1.0,0.0,0.0,1.0,187.32785,0.0)">{?nl} <g>{?nl} <g stroke-width="0.31999pt">{?nl} <g stroke-dasharray="none" stroke-dashoffset="0.0pt">{?nl} <g stroke-linecap="round">{?nl} <g stroke-linejoin="round">{?nl} <path d=" M  -1.19998 1.59998 C  -1.09998 0.99998 0.0 0.09999 0.29999 0.0 C  0.0 -0.09999 -1.09998 -0.99998 -1.19998 -1.59998  " style="fill:none"/>{?nl} </g>{?nl} </g>{?nl} </g>{?nl} </g>{?nl} </g>{?nl}  </g>{?nl} </g>{?nl} <g>{?nl} <g>{?nl} <g transform="matrix(1.0,0.0,0.0,1.0,191.32082,-2.15277)">{?nl} <g fill="rgb(0.0%,0.0%,0.0%)">{?nl} <text style="stroke:none" transform="scale(1,-1) translate(2.85764,0)" text-anchor="middle"  font-size="10"> 
<tspan font-family="cmmi" font-size="10">x</tspan></text> 
</g>{?nl} </g>{?nl} </g>{?nl} </g>{?nl} <path d=" M  0.0 -17.07138 L  0.0 101.96962  " style="fill:none"/>{?nl} <g>{?nl} <g transform="matrix(0.0,1.0,-1.0,0.0,0.0,101.96962)">{?nl} <g>{?nl} <g stroke-width="0.31999pt">{?nl} <g stroke-dasharray="none" stroke-dashoffset="0.0pt">{?nl} <g stroke-linecap="round">{?nl} <g stroke-linejoin="round">{?nl} <path d=" M  -1.19998 1.59998 C  -1.09998 0.99998 0.0 0.09999 0.29999 0.0 C  0.0 -0.09999 -1.09998 -0.99998 -1.19998 -1.59998  " style="fill:none"/>{?nl} </g>{?nl} </g>{?nl} </g>{?nl} </g>{?nl} </g>{?nl}  </g>{?nl} </g>{?nl} <g>{?nl} <g>{?nl} <g transform="matrix(1.0,0.0,0.0,1.0,-2.6308,107.90701)">{?nl} <g fill="rgb(0.0%,0.0%,0.0%)">{?nl} <text style="stroke:none" transform="scale(1,-1) translate(2.6308,0)" text-anchor="middle"  font-size="10"> 
<tspan font-family="cmmi" font-size="10">y</tspan></text> 
</g>{?nl} </g>{?nl} </g>{?nl} </g>{?nl} <g>{?nl} <g stroke="rgb(62.5%,25.0%,62.5%)">{?nl} <g fill="rgb(62.5%,25.0%,62.5%)">{?nl} <g stroke-width="1.0pt">{?nl} <path d=" M  -85.35823 0.0 L  59.75047 0.0  " style="fill:none"/>{?nl} </g>{?nl} </g>{?nl} </g>{?nl} </g>{?nl} <g>{?nl} <g stroke="rgb(62.5%,25.0%,62.5%)">{?nl} <g fill="rgb(62.5%,25.0%,62.5%)">{?nl} <g stroke-width="1.0pt">{?nl} <path d=" M  59.75047 85.35823 L  170.71646 85.35823  " style="fill:none"/>{?nl} </g>{?nl} </g>{?nl} </g>{?nl} </g>{?nl} <g>{?nl} <g stroke-width="0.5pt">{?nl} <g stroke="rgb(62.5%,25.0%,62.5%)">{?nl} <g fill="rgb(62.5%,25.0%,62.5%)">{?nl} <g>{?nl} <g stroke-width="0.5pt">{?nl} <g stroke="rgb(62.5%,25.0%,62.5%)">{?nl} <g fill="rgb(62.5%,25.0%,62.5%)">{?nl} <path d=" M  61.75047 85.35823 C  61.75047 86.46281 60.85506 87.35823 59.75047 87.35823 C  58.64589 87.35823 57.75047 86.46281 57.75047 85.35823 C  57.75047 84.25365 58.64589 83.35823 59.75047 83.35823 C  60.85506 83.35823 61.75047 84.25365 61.75047 85.35823 Z M  59.75047 85.35823  " style="fill:none"/>{?nl} </g>{?nl} </g>{?nl} </g>{?nl} </g>{?nl} <g>{?nl} <g transform="matrix(1.0,0.0,0.0,1.0,59.75047,85.35823)">{?nl} <g fill="rgb(62.5%,25.0%,62.5%)">{?nl} <text style="stroke:none" transform="scale(1,-1) translate(0.0,0)" text-anchor="middle"  font-size="10"> 
</text> 
</g>{?nl} </g>{?nl} </g>{?nl} </g>{?nl} </g>{?nl} </g>{?nl} </g>{?nl} </g>{?nl} </g>{?nl} </g>{?nl} </g>{?nl} </g>{?nl} 
                                                                             </g> 
</svg> 
