<?xml version="1.0" encoding="iso-8859-1" standalone="no"?> 
<?xml-stylesheet href="latex-oLupa7.css" type="text/css"?> 
<svg xmlns="http://www.w3.org/2000/svg" xmlns:xlink="http://www.w3.org/1999/xlink" width="250.78378pt" height="136.97281pt" viewBox="-125.39189 -68.4864 250.78378 136.97281 "> 
<g transform="translate(0, 68.4864 ) scale(1,-1) translate(0,68.4864 )"> 
                                      <g>{?nl} <g stroke="rgb(0.0%,0.0%,0.0%)">{?nl} <g fill="rgb(0.0%,0.0%,0.0%)">{?nl} <g stroke-width="0.4pt">{?nl} <g>{?nl} <path d=" M  -125.1919 0.0 L  124.7319 0.0  " style="fill:none"/>{?nl} <g>{?nl} <g transform="matrix(1.0,0.0,0.0,1.0,124.7319,0.0)">{?nl} <g>{?nl} <g stroke-width="0.31999pt">{?nl} <g stroke-dasharray="none" stroke-dashoffset="0.0pt">{?nl} <g stroke-linecap="round">{?nl} <g stroke-linejoin="round">{?nl} <path d=" M  -1.19998 1.59998 C  -1.09998 0.99998 0.0 0.09999 0.29999 0.0 C  0.0 -0.09999 -1.09998 -0.99998 -1.19998 -1.59998  " style="fill:none"/>{?nl} </g>{?nl} </g>{?nl} </g>{?nl} </g>{?nl} </g>{?nl}  </g>{?nl} </g>{?nl} <g>{?nl} </g>{?nl} <path d=" M  -113.81097 2.0 L  -113.81097 -2.0  " style="fill:none"/>{?nl} <g>{?nl} <g>{?nl} <g transform="matrix(1.0,0.0,0.0,1.0,-117.97765,-11.9774)">{?nl} <g fill="rgb(0.0%,0.0%,0.0%)">{?nl} <text style="stroke:none" transform="scale(1,-1) translate(4.16667,0)" text-anchor="middle"  font-size="10"> 
-2</text> 
</g>{?nl} </g>{?nl} </g>{?nl} </g>{?nl} <path d=" M  -56.90549 2.0 L  -56.90549 -2.0  " style="fill:none"/>{?nl} <g>{?nl} <g>{?nl} <g transform="matrix(1.0,0.0,0.0,1.0,-61.07216,-11.9774)">{?nl} <g fill="rgb(0.0%,0.0%,0.0%)">{?nl} <text style="stroke:none" transform="scale(1,-1) translate(4.16667,0)" text-anchor="middle"  font-size="10"> 
-1</text> 
</g>{?nl} </g>{?nl} </g>{?nl} </g>{?nl} <path d=" M  0.0 2.0 L  0.0 -2.0  " style="fill:none"/>{?nl} <g>{?nl} <g>{?nl} <g transform="matrix(1.0,0.0,0.0,1.0,-2.5,-11.9774)">{?nl} <g fill="rgb(0.0%,0.0%,0.0%)">{?nl} <text style="stroke:none" transform="scale(1,-1) translate(2.5,0)" text-anchor="middle"  font-size="10"> 
0</text> 
</g>{?nl} </g>{?nl} </g>{?nl} </g>{?nl} <path d=" M  56.90549 2.0 L  56.90549 -2.0  " style="fill:none"/>{?nl} <g>{?nl} <g>{?nl} <g transform="matrix(1.0,0.0,0.0,1.0,54.40549,-11.9774)">{?nl} <g fill="rgb(0.0%,0.0%,0.0%)">{?nl} <text style="stroke:none" transform="scale(1,-1) translate(2.5,0)" text-anchor="middle"  font-size="10"> 
1</text> 
</g>{?nl} </g>{?nl} </g>{?nl} </g>{?nl} <path d=" M  113.81097 2.0 L  113.81097 -2.0  " style="fill:none"/>{?nl} <g>{?nl} <g>{?nl} <g transform="matrix(1.0,0.0,0.0,1.0,111.31097,-11.9774)">{?nl} <g fill="rgb(0.0%,0.0%,0.0%)">{?nl} <text style="stroke:none" transform="scale(1,-1) translate(2.5,0)" text-anchor="middle"  font-size="10"> 
2</text> 
</g>{?nl} </g>{?nl} </g>{?nl} </g>{?nl} <path d=" M  0.0 -68.2864 L  0.0 67.82642  " style="fill:none"/>{?nl} <g>{?nl} <g transform="matrix(0.0,1.0,-1.0,0.0,0.0,67.82642)">{?nl} <g>{?nl} <g stroke-width="0.31999pt">{?nl} <g stroke-dasharray="none" stroke-dashoffset="0.0pt">{?nl} <g stroke-linecap="round">{?nl} <g stroke-linejoin="round">{?nl} <path d=" M  -1.19998 1.59998 C  -1.09998 0.99998 0.0 0.09999 0.29999 0.0 C  0.0 -0.09999 -1.09998 -0.99998 -1.19998 -1.59998  " style="fill:none"/>{?nl} </g>{?nl} </g>{?nl} </g>{?nl} </g>{?nl} </g>{?nl}  </g>{?nl} </g>{?nl} <g>{?nl} </g>{?nl} <path d=" M  2.0 -56.90549 L  -2.0 -56.90549  " style="fill:none"/>{?nl} <g>{?nl} <g>{?nl} <g transform="matrix(1.0,0.0,0.0,1.0,-13.86632,-60.1277)">{?nl} <g fill="rgb(0.0%,0.0%,0.0%)">{?nl} <text style="stroke:none" transform="scale(1,-1) translate(4.16667,0)" text-anchor="middle"  font-size="10"> 
-1</text> 
</g>{?nl} </g>{?nl} </g>{?nl} </g>{?nl} <path d=" M  2.0 0.0 L  -2.0 0.0  " style="fill:none"/>{?nl} <g>{?nl} <g>{?nl} <g transform="matrix(1.0,0.0,0.0,1.0,-10.53297,-3.22221)">{?nl} <g fill="rgb(0.0%,0.0%,0.0%)">{?nl} <text style="stroke:none" transform="scale(1,-1) translate(2.5,0)" text-anchor="middle"  font-size="10"> 
0</text> 
</g>{?nl} </g>{?nl} </g>{?nl} </g>{?nl} <path d=" M  2.0 56.90549 L  -2.0 56.90549  " style="fill:none"/>{?nl} <g>{?nl} <g>{?nl} <g transform="matrix(1.0,0.0,0.0,1.0,-10.53297,53.68327)">{?nl} <g fill="rgb(0.0%,0.0%,0.0%)">{?nl} <text style="stroke:none" transform="scale(1,-1) translate(2.5,0)" text-anchor="middle"  font-size="10"> 
1</text> 
</g>{?nl} </g>{?nl} </g>{?nl} </g>{?nl} <g>{?nl} <g stroke="rgb(62.5%,25.0%,62.5%)">{?nl} <g fill="rgb(62.5%,25.0%,62.5%)">{?nl} <g stroke-width="1.0pt">{?nl} <path d=" M  -113.81097 -54.86148 C  -113.81097 -54.86148 -106.95898 -54.33054 -104.3273 -54.07043 C  -101.69562 -53.81033 -97.47531 -53.3424 -94.84363 -52.98679 C  -92.21194 -52.63116 -87.99164 -51.98993 -85.35995 -51.5072 C  -82.72827 -51.02448 -78.50797 -50.15442 -75.87628 -49.50748 C  -73.2446 -48.86053 -69.02429 -47.70023 -66.39261 -46.84439 C  -63.76093 -45.98856 -59.54062 -44.45148 -56.90894 -43.33902 C  -54.27725 -42.22656 -50.05692 -40.23813 -47.42526 -38.82642 C  -44.79361 -37.4147 -40.57327 -34.90277 -37.94162 -33.16418 C  -35.30997 -31.4256 -31.08963 -28.35886 -28.45795 -26.29584 C  -25.82626 -24.23282 -21.60596 -20.64102 -18.97427 -18.29526 C  -16.34259 -15.9495 -12.12228 -11.92743 -9.4906 -9.389 C  -6.85892 -6.85059 -2.63858 -2.60312 -0.00693 0.0 C  2.62473 2.60312 6.84506 6.83649 9.47672 9.3725 C  12.10837 11.90851 16.32874 15.9314 18.96039 18.2779 C  21.59204 20.62439 25.81238 24.22067 28.44403 26.28455 C  31.07568 28.34842 35.29602 31.4143 37.9277 33.1529 C  40.55939 34.89148 44.7797 37.40256 47.41138 38.81512 C  50.04306 40.22769 54.26337 42.22049 56.89505 43.3338 C  59.52673 44.44711 63.74704 45.9826 66.37872 46.83917 C  69.0104 47.69574 73.23071 48.85992 75.8624 49.50748 C  78.49408 50.15503 82.71439 51.02408 85.34607 51.50632 C  87.97775 51.98856 92.19809 52.62805 94.82974 52.9833 C  97.4614 53.33856 101.68173 53.80685 104.31339 54.06696 C  106.94504 54.32706 113.79706 54.858 113.79706 54.858  " style="fill:none"/>{?nl} </g>{?nl} </g>{?nl} </g>{?nl} </g>{?nl} </g>{?nl} </g>{?nl} </g>{?nl} </g>{?nl} </g>{?nl} 
                                                                           </g> 
</svg> 
